<?xml version="1.0" standalone="no"?>
<!DOCTYPE svg PUBLIC "-//W3C//DTD SVG 20010904//EN"
 "http://www.w3.org/TR/2001/REC-SVG-20010904/DTD/svg10.dtd">
<svg version="1.0" xmlns="http://www.w3.org/2000/svg"
 width="600.000000pt" height="600.000000pt" viewBox="0 0 600.000000 600.000000"
 preserveAspectRatio="xMidYMid meet">

<g transform="translate(0.000000,600.000000) scale(0.100000,-0.100000)"
fill="#000000" stroke="none">
<path d="M760 3843 c-102 -173 -263 -446 -357 -607 -95 -160 -173 -296 -173
-301 0 -6 48 -76 106 -155 l106 -145 66 -6 c37 -4 360 -10 717 -14 l650 -7
150 254 c322 545 756 1267 765 1273 35 21 -18 25 -357 25 l-368 -1 -55 -92
c-31 -51 -159 -262 -285 -469 l-230 -378 -188 0 -187 0 23 38 c32 50 531 885
535 895 2 4 -162 7 -365 7 l-368 -1 -185 -316z"/>
<path d="M3034 4072 c-28 -48 -232 -397 -454 -777 -222 -379 -433 -741 -469
-802 l-65 -113 -763 0 -763 0 140 -272 c77 -150 168 -328 203 -395 l62 -123
675 0 675 0 559 960 560 960 988 -2 c543 -2 988 0 988 4 0 4 -85 150 -189 325
l-189 318 -954 2 -953 3 -51 -88z"/>
<path d="M3283 2828 c-155 -260 -372 -637 -483 -838 -111 -201 -206 -369 -211
-374 -5 -6 -9 -14 -9 -18 0 -4 156 -8 348 -8 l347 1 101 177 c55 97 194 340
309 540 l208 362 132 0 133 0 -285 -512 c-156 -282 -291 -523 -299 -535 -8
-12 -14 -25 -14 -28 0 -3 93 -5 208 -5 l207 1 298 539 299 540 144 0 144 0
-14 -22 c-18 -28 -586 -1051 -586 -1055 0 -2 170 -2 377 -1 l377 3 31 55 c17
30 70 123 116 205 47 83 204 358 348 613 144 254 261 466 259 470 -2 4 -56 87
-121 185 l-119 177 -982 0 -981 0 -282 -472z"/>
</g>
</svg>
